<?xml version="1.0" standalone="no"?><!DOCTYPE svg PUBLIC "-//W3C//DTD SVG 1.1//EN" "http://www.w3.org/Graphics/SVG/1.1/DTD/svg11.dtd"><svg t="1594086841459" class="icon" viewBox="0 0 1024 1024" version="1.1" xmlns="http://www.w3.org/2000/svg" p-id="3275" xmlns:xlink="http://www.w3.org/1999/xlink" width="200" height="200"><defs><style type="text/css"></style></defs><path d="M821.3042969703674 836.2227435112c-3.69340181350708 0-7.3143839836120605-1.3759732246398926-10.138750076293945-4.200339317321777L190.96372079849243 211.82057809829712c-5.57631254196167-5.57631254196167-5.57631254196167-14.70118761062622 0-20.27750015258789s14.70118761062622-5.57631254196167 20.27750015258789 0l620.201826095581 620.201826095581c5.57631254196167 5.57631254196167 5.57631254196167 14.70118761062622 0 20.27750015258789-2.8243660926818848 2.751946449279785-6.445348262786865 4.200339317321777-10.138750076293945 4.200339317321777zM201.10247087478638 836.2227435112c-3.69340181350708 0-7.3143839836120605-1.3759732246398926-10.138750076293945-4.200339317321777-5.57631254196167-5.57631254196167-5.57631254196167-14.70118761062622 0-20.27750015258789L430.88999938964844 571.8186254501343c5.57631254196167-5.57631254196167 14.70118761062622-5.57631254196167 20.27750015258789 0 5.57631254196167 5.57631254196167 5.57631254196167 14.70118761062622 0 20.27750015258789L211.24122095108032 832.0224041938782c-2.8243660926818848 2.751946449279785-6.445348262786865 4.200339317321777-10.138750076293945 4.200339317321777zM587.8233666419983 449.50184774398804c-3.69340181350708 0-7.3143839836120605-1.3759732246398926-10.138750076293945-4.200339317321777-5.57631254196167-5.57631254196167-5.57631254196167-14.70118761062622 0-20.27750015258789L811.1655468940735 191.54307794570923c5.57631254196167-5.57631254196167 14.70118761062622-5.57631254196167 20.27750015258789 0s5.57631254196167 14.70118761062622 0 20.27750015258789L597.9621167182922 445.30150842666626c-2.8243660926818848 2.8243660926818848-6.517767906188965 4.200339317321777-10.138750076293945 4.200339317321777z" fill="#383838" p-id="3276"></path></svg>