<?xml version="1.0" standalone="no"?><!DOCTYPE svg PUBLIC "-//W3C//DTD SVG 1.1//EN" "http://www.w3.org/Graphics/SVG/1.1/DTD/svg11.dtd"><svg class="icon" width="200px" height="200.00px" viewBox="0 0 1024 1024" version="1.1" xmlns="http://www.w3.org/2000/svg"><path fill="#bfbfbf" d="M512 590.222222c-95.383704 0-173.037037-77.653333-173.037037-173.037037S416.616296 244.148148 512 244.148148 685.037037 321.801481 685.037037 417.185185 607.383704 590.222222 512 590.222222z m0-303.407407c-71.86963 0-130.37037 58.500741-130.37037 130.37037S440.13037 547.555556 512 547.555556 642.37037 489.054815 642.37037 417.185185 583.86963 286.814815 512 286.814815zM511.525926 896c-6.352593 0-12.420741-2.844444-16.497778-7.774815-2.180741-2.654815-214.091852-260.077037-217.315555-264.059259v-0.094815c-21.902222-26.548148-38.968889-56.414815-50.725926-88.557037C214.755556 502.234074 208.592593 467.152593 208.592593 431.407407c0-81.066667 31.573333-157.202963 88.841481-214.565926C354.797037 159.573333 430.933333 128 512 128s157.202963 31.573333 214.565926 88.841481C783.834074 274.204444 815.407407 350.340741 815.407407 431.407407c0 35.745185-6.162963 70.826667-18.394074 104.201482-11.757037 32.237037-28.823704 62.008889-50.725926 88.557037-0.18963 0.284444-0.379259 0.568889-0.663703 0.758518L527.928889 888.225185c-3.982222 4.93037-10.05037 7.774815-16.402963 7.774815zM310.613333 597.048889c0.18963 0.284444 0.379259 0.474074 0.663704 0.758518l200.343704 243.38963c50.631111-61.25037 200.628148-242.725926 201.86074-244.148148 38.305185-46.459259 59.354074-105.244444 59.354075-165.641482 0-143.739259-117.001481-260.740741-260.740741-260.74074S251.259259 287.668148 251.259259 431.407407c0 60.302222 21.048889 119.182222 59.354074 165.641482z" /></svg>